<svg width="75" height="18" viewBox="0 0 75 18" fill="none" xmlns="http://www.w3.org/2000/svg">
<path d="M23.13 1.45498L19.0125 17.25H14.355L11.835 6.85498L9.225 17.25H4.5675L0.5625 1.45498H4.68L6.9525 12.9525L9.765 1.45498H13.995L16.695 12.9525L18.99 1.45498H23.13Z" fill="black"/>
<path d="M24.2946 10.95C24.2946 9.65998 24.5345 8.52748 25.0145 7.55248C25.5095 6.57748 26.1771 5.82748 27.0171 5.30248C27.8571 4.77748 28.7946 4.51498 29.8296 4.51498C30.7146 4.51498 31.4871 4.69497 32.1471 5.05497C32.8221 5.41498 33.3396 5.88748 33.6996 6.47248V4.69498H37.5471V17.25H33.6996V15.4725C33.3246 16.0575 32.7996 16.53 32.1245 16.89C31.4645 17.25 30.692 17.43 29.807 17.43C28.787 17.43 27.8571 17.1675 27.0171 16.6425C26.1771 16.1025 25.5095 15.345 25.0145 14.37C24.5345 13.38 24.2946 12.24 24.2946 10.95ZM33.6996 10.9725C33.6996 10.0125 33.4295 9.25498 32.8895 8.69998C32.3645 8.14498 31.7196 7.86748 30.9546 7.86748C30.1896 7.86748 29.5371 8.14498 28.9971 8.69998C28.4721 9.23998 28.2096 9.98998 28.2096 10.95C28.2096 11.91 28.4721 12.675 28.9971 13.245C29.5371 13.8 30.1896 14.0775 30.9546 14.0775C31.7196 14.0775 32.3645 13.8 32.8895 13.245C33.4295 12.69 33.6996 11.9325 33.6996 10.9725Z" fill="black"/>
<path d="M44.178 0.599976V17.25H40.3305V0.599976H44.178Z" fill="black"/>
<path d="M50.8138 0.599976V17.25H46.9663V0.599976H50.8138Z" fill="black"/>
<path d="M65.437 10.77C65.437 11.13 65.4145 11.505 65.3695 11.895H56.662C56.722 12.675 56.9695 13.275 57.4045 13.695C57.8545 14.1 58.402 14.3025 59.047 14.3025C60.007 14.3025 60.6745 13.8975 61.0495 13.0875H65.1445C64.9345 13.9125 64.552 14.655 63.997 15.315C63.457 15.975 62.7745 16.4925 61.9495 16.8675C61.1245 17.2425 60.202 17.43 59.182 17.43C57.952 17.43 56.857 17.1675 55.897 16.6425C54.937 16.1175 54.187 15.3675 53.647 14.3925C53.107 13.4175 52.837 12.2775 52.837 10.9725C52.837 9.66747 53.0995 8.52748 53.6245 7.55248C54.1645 6.57748 54.9145 5.82748 55.8745 5.30248C56.8345 4.77748 57.937 4.51498 59.182 4.51498C60.397 4.51498 61.477 4.76998 62.422 5.27998C63.367 5.78998 64.102 6.51748 64.627 7.46248C65.167 8.40748 65.437 9.50998 65.437 10.77ZM61.4995 9.75748C61.4995 9.09748 61.2745 8.57248 60.8245 8.18248C60.3745 7.79248 59.812 7.59748 59.137 7.59748C58.492 7.59748 57.9445 7.78498 57.4945 8.15998C57.0595 8.53498 56.7895 9.06748 56.6845 9.75748H61.4995Z" fill="black"/>
<path d="M74.4643 13.9875V17.25H72.5068C71.1118 17.25 70.0243 16.9125 69.2443 16.2375C68.4643 15.5475 68.0743 14.43 68.0743 12.885V7.88998H66.5443V4.69498H68.0743V1.63498H71.9218V4.69498H74.4418V7.88998H71.9218V12.93C71.9218 13.305 72.0118 13.575 72.1918 13.74C72.3718 13.905 72.6718 13.9875 73.0918 13.9875H74.4643Z" fill="black"/>
</svg>
